<svg xmlns="http://www.w3.org/2000/svg" width="501.441" height="501.441" viewBox="0 0 501.441 501.441">
  <g id="coding" transform="translate(-2 -2)">
    <path id="Path_50304" data-name="Path 50304" d="M478.369,102.288H386.438V10.357A8.357,8.357,0,0,0,378.081,2H127.36A8.357,8.357,0,0,0,119,10.357v91.931H27.072A25.147,25.147,0,0,0,2,127.36V394.8a25.147,25.147,0,0,0,25.072,25.072H192.715l-5.6,33.429H177.5a8.474,8.474,0,0,0-6.686,3.343L145.747,490.07a8.357,8.357,0,0,0,6.686,13.372H353.009a8.357,8.357,0,0,0,6.686-13.372L334.623,456.64a8.474,8.474,0,0,0-6.686-3.343h-9.611l-5.6-33.429H478.369A25.147,25.147,0,0,0,503.441,394.8V127.36a25.147,25.147,0,0,0-25.072-25.072ZM135.718,18.715H369.724V185.862H135.718Zm188.041,451.3,12.536,16.715H169.147l12.536-16.715ZM204.081,453.3l5.6-33.429h86.081l5.6,33.429Zm282.646-58.5a8.357,8.357,0,0,1-8.357,8.357H27.072a8.357,8.357,0,0,1-8.357-8.357V369.724H486.727Zm0-41.787H18.715V127.36A8.357,8.357,0,0,1,27.072,119H119v75.216a8.357,8.357,0,0,0,8.357,8.357H378.081a8.357,8.357,0,0,0,8.357-8.357V119h91.931a8.357,8.357,0,0,1,8.357,8.357Z" transform="translate(0 0)" fill="#fff"/>
    <path id="Path_50305" data-name="Path 50305" d="M432.225,28H331.937a8.357,8.357,0,0,0-8.357,8.357v8.357H256.721V36.357A8.357,8.357,0,0,0,248.363,28H198.219a8.357,8.357,0,0,0-8.357,8.357v8.357H123V36.357A8.357,8.357,0,0,0,114.646,28H14.357A8.357,8.357,0,0,0,6,36.357V69.787a8.357,8.357,0,0,0,8.357,8.357H114.646A8.357,8.357,0,0,0,123,69.787V61.429h66.859v8.357a8.357,8.357,0,0,0,8.357,8.357h16.715V94.859H198.219a8.357,8.357,0,0,0-8.357,8.357v33.429A8.357,8.357,0,0,0,198.219,145h50.144a8.357,8.357,0,0,0,8.357-8.357V103.216a8.357,8.357,0,0,0-8.357-8.357H231.649V78.144h16.715a8.357,8.357,0,0,0,8.357-8.357V61.429H323.58v8.357a8.357,8.357,0,0,0,8.357,8.357H432.225a8.357,8.357,0,0,0,8.357-8.357V36.357A8.357,8.357,0,0,0,432.225,28ZM106.288,61.429H22.715V44.715h83.574Zm133.718,50.144v16.715H206.577V111.574Zm0-50.144H206.577V44.715h33.429Zm183.862,0H340.294V44.715h83.574Z" transform="translate(29.429 191.291)" fill="#fff"/>
    <path id="Path_50306" data-name="Path 50306" d="M72.591,7.293,22.447,57.437a8.357,8.357,0,0,0,0,11.817L72.591,119.4l11.817-11.817L40.173,63.346,84.409,19.11Z" transform="translate(132.434 38.942)" fill="#fff"/>
    <path id="Path_50307" data-name="Path 50307" d="M48.11,7.293,36.293,19.11,80.529,63.346,36.293,107.581,48.11,119.4,98.254,69.254a8.357,8.357,0,0,0,0-11.817Z" transform="translate(252.306 38.942)" fill="#fff"/>
    <rect id="Rectangle_1733" data-name="Rectangle 1733" width="158.572" height="16.706" transform="translate(219.697 174.851) rotate(-71.547)" fill="#fff"/>
  </g>
</svg>
