<svg xmlns="http://www.w3.org/2000/svg" width="448.492" height="445.311" viewBox="0 0 448.492 445.311">
  <g id="create" transform="translate(-0.557 -1)">
    <path id="Path_50292" data-name="Path 50292" d="M26,57H69.095V71.365H26Z" transform="translate(157.3 346.216)" fill="#fff"/>
    <path id="Path_50293" data-name="Path 50293" d="M449.049,117.923l-17.633-5.882,8.31-16.62L412.089,67.782,395.461,76.1l-5.875-17.64h-39.08L344.631,76.1,328,67.782,300.366,95.42l3.06,6.134H272.168C256.812,42.974,203.044,1,141.957,1h-3.505C64.172,1,3.739,61.433,3.739,135.706A134.8,134.8,0,0,0,61.2,246.064a33.708,33.708,0,0,1,14.365,27.588v.28H27.491L.557,345.757H25.286V410.4A35.953,35.953,0,0,0,61.2,446.311H219.212A35.953,35.953,0,0,0,255.124,410.4V345.757h24.729l-26.934-71.824H204.847v-.273a33.708,33.708,0,0,1,14.365-27.588,134.537,134.537,0,0,0,51.943-72.693h32.271l-3.067,6.134L328,207.15l16.627-8.317,5.875,17.64h39.08l5.875-17.64,16.627,8.317,27.638-27.638-8.31-16.62,17.64-5.882ZM132.47,273.932l-9.768-122.1h17.877A17.5,17.5,0,0,0,144.4,153.9l12.749,4.783L147.94,273.932Zm16.979-133.485a3.184,3.184,0,0,1,.007-5.961L190.482,119.1v36.731Zm55.4,4.2h86.189V157.01l6.012,2h-92.2Zm86.189-26.726v12.361H204.847V115.919h92.2ZM69.429,234.3A120.347,120.347,0,0,1,138.452,15.365h3.505c53.315,0,100.432,35.761,115.371,86.189H196.357l-51.943,19.479a17.634,17.634,0,0,0-11.391,16.433h-11.47l-1.336-16.656A28.877,28.877,0,0,0,91.58,94.372H89.928a28.73,28.73,0,1,0,0,57.459h18.365l9.768,122.1H89.928v-.273a48.064,48.064,0,0,0-20.5-39.36Zm37.708-96.833H89.928a14.365,14.365,0,0,1,0-28.73H91.58a14.437,14.437,0,0,1,14.315,13.216ZM37.446,288.3h78.023l-16.16,43.095H21.286Zm2.205,122.1V345.757H109.27l16.57-44.179V431.946H61.2A21.574,21.574,0,0,1,39.651,410.4Zm201.108,0a21.574,21.574,0,0,1-21.547,21.547H140.2V301.577l16.57,44.179h83.984Zm18.365-79.007H166.73L150.569,288.3h92.388ZM210.981,234.3a48.064,48.064,0,0,0-20.5,39.36v.273H162.348l8.8-110.006,25.21,9.452h59.837A120.251,120.251,0,0,1,210.981,234.3Zm223.7-87.647-16.477,5.495-1.214,3.167c-.359.919-.718,1.832-1.113,2.722l-1.393,3.11,7.764,15.528-12.993,12.993L393.73,181.9l-3.11,1.393c-.883.4-1.781.754-2.693,1.1l-3.2,1.207-5.5,16.505h-18.38l-5.5-16.505-3.2-1.207c-.912-.345-1.81-.7-2.693-1.1l-3.11-1.393-15.528,7.764-12.993-12.993,7.764-15.528-1.393-3.11c-.4-.9-.754-1.8-1.113-2.722l-1.214-3.167L305.4,146.652v-18.38l16.476-5.495,1.214-3.167c.359-.919.718-1.832,1.113-2.722l1.393-3.11L317.834,98.25l12.993-12.993,15.528,7.764,3.11-1.393c.883-.4,1.781-.754,2.693-1.1l3.2-1.207,5.5-16.5h18.38l5.5,16.505,3.2,1.207c.912.345,1.81.7,2.693,1.1l3.11,1.393,15.528-7.764,12.993,12.993-7.764,15.528,1.393,3.11c.4.9.754,1.8,1.113,2.722l1.214,3.167,16.469,5.495Z" transform="translate(0)" fill="#fff"/>
    <path id="Path_50294" data-name="Path 50294" d="M82.912,15a35.912,35.912,0,1,0,35.912,35.912A35.953,35.953,0,0,0,82.912,15Zm0,57.459a21.547,21.547,0,1,1,21.547-21.547A21.574,21.574,0,0,1,82.912,72.459Z" transform="translate(287.131 86.554)" fill="#fff"/>
    <path id="Path_50295" data-name="Path 50295" d="M19.365,20H5A110.388,110.388,0,0,0,6.085,35.378l14.221-2.018A95.8,95.8,0,0,1,19.365,20Z" transform="translate(27.469 117.466)" fill="#fff"/>
    <path id="Path_50296" data-name="Path 50296" d="M19.4,23.715,5.621,27.809a107.431,107.431,0,0,0,49.4,62.545l7.2-12.433A93.068,93.068,0,0,1,19.4,23.715Z" transform="translate(31.308 140.434)" fill="#fff"/>
    <path id="Path_50297" data-name="Path 50297" d="M17,7H31.365V21.365H17Z" transform="translate(101.658 37.095)" fill="#fff"/>
    <path id="Path_50298" data-name="Path 50298" d="M13,7H27.365V21.365H13Z" transform="translate(76.928 37.095)" fill="#fff"/>
    <path id="Path_50299" data-name="Path 50299" d="M25,7H39.365V21.365H25Z" transform="translate(151.117 37.095)" fill="#fff"/>
    <path id="Path_50300" data-name="Path 50300" d="M21,7H35.365V21.365H21Z" transform="translate(126.387 37.095)" fill="#fff"/>
  </g>
</svg>
