<svg id="design" xmlns="http://www.w3.org/2000/svg" width="512" height="512" viewBox="0 0 512 512">
  <path id="Path_50301" data-name="Path 50301" d="M316,346a10,10,0,1,0,10,10A10,10,0,0,0,316,346Zm0,0" fill="#fff"/>
  <path id="Path_50302" data-name="Path 50302" d="M462,0H50A50.056,50.056,0,0,0,0,50V356a50.056,50.056,0,0,0,50,50H206v46H196a50.013,50.013,0,0,0-50,50,10,10,0,0,0,10,10H356a10,10,0,0,0,10-10,50.056,50.056,0,0,0-50-50H306V406H462a50.056,50.056,0,0,0,50-50V50A50.056,50.056,0,0,0,462,0ZM50,20H462a30.033,30.033,0,0,1,30,30V306H446V76a10,10,0,0,0-10-10H356a10,10,0,0,0-10,10V306H295.945c-.105-10.344-.375-20.539-.8-30.43-1.75-40.727-5.738-68.008-7.812-80.008A50.006,50.006,0,0,0,300.98,130.34L266.32,70.309a10,10,0,0,0-17.32,0l-34.676,60.035a50,50,0,0,0,11,63.105c-2.164,11.965-6.531,40.223-8.43,82.1-.449,10-.734,20.2-.844,30.449H166V156a9.947,9.947,0,0,0-.988-4.316c-.027-.051-.043-.105-.066-.156l-40-80a10,10,0,0,0-17.891,0l-40,80c-.023.051-.039.105-.062.156A9.939,9.939,0,0,0,66,156V306H20V50A30.033,30.033,0,0,1,50,20ZM366,306V86h60v20H416a10,10,0,0,0,0,20h10v30H416a10,10,0,0,0,0,20h10v30H416a10,10,0,0,0,0,20h10v40H416a10,10,0,0,0,0,20h10v20ZM257.66,205.309a50.071,50.071,0,0,0,10.789-1.2c1.855,11.895,4.582,32.941,6.2,61.891H237.422c1.691-28.93,4.547-50.3,6.52-62.6a50.062,50.062,0,0,0,13.719,1.91Zm0-20c-22.855,0-37.594-24.875-26.012-44.969L257.66,95.309l26,45.027c11.539,20.012-3,44.973-26,44.973ZM236.5,286h39.019c.211,6.57.355,13.254.426,20H236.054c.074-6.7.227-13.387.449-20ZM126,306V166h20V306Zm-40,0V166h20V306Zm6.18-160L116,98.359,139.82,146Zm252.1,346H167.7A30.059,30.059,0,0,1,196,472H316a30.047,30.047,0,0,1,28.285,20ZM286,452H226V406h60Zm176-66H50a30.033,30.033,0,0,1-30-30V326H492v30A30.033,30.033,0,0,1,462,386Zm0,0" fill="#fff"/>
  <path id="Path_50303" data-name="Path 50303" d="M276,346H216a10,10,0,0,0,0,20h60a10,10,0,0,0,0-20Zm0,0" fill="#fff"/>
</svg>
