<svg xmlns="http://www.w3.org/2000/svg" width="512" height="512.002" viewBox="0 0 512 512.002">
  <g id="motion" transform="translate(0 0.002)">
    <path id="Path_50308" data-name="Path 50308" d="M107.867,401.578,141.973,412a23.189,23.189,0,0,0,28.852-15.066l29.262-90.781,62.082-43.762,37.469,69.793a23.1,23.1,0,0,0,13.328,11.109l96.34,31.047-2.121,10.52c-2.539,12.586,5.41,25.008,17.715,27.684a23.217,23.217,0,0,0,27.676-18.078l6.3-31.258a23.2,23.2,0,0,0-15.633-26.676L336.2,302.027a.313.313,0,0,1-.176-.148l-43.941-81.848-24.6-103.848,43.758,14.6,32.7,74.918a23.195,23.195,0,1,0,42.516-18.559l-9.07-20.781a7.5,7.5,0,1,0-13.746,6l9.07,20.781a8.2,8.2,0,1,1-15.023,6.559L324.7,124.14a13.456,13.456,0,0,0-8.055-7.363l-57.2-19.082a7.5,7.5,0,0,0-9.672,8.844l27.93,117.906a7.532,7.532,0,0,0,.688,1.82l44.41,82.715A15.231,15.231,0,0,0,331.6,316.3l107.047,34.5a8.2,8.2,0,0,1,5.527,9.434l-6.3,31.258a8.2,8.2,0,0,1-9.781,6.391,8.469,8.469,0,0,1-6.2-10.066l3.445-17.082a7.5,7.5,0,0,0-5.051-8.621l-102.715-33.1a8.172,8.172,0,0,1-4.715-3.93L262.988,232.21a8.126,8.126,0,0,1-.758-1.988L227.336,82.882A8.194,8.194,0,0,1,237.9,73.21l93.055,31.047a8.221,8.221,0,0,1,4.922,4.5l14.957,34.277a7.5,7.5,0,0,0,13.746-6l-14.957-34.277A23.235,23.235,0,0,0,335.7,90.03L248.375,60.894A38.14,38.14,0,0,0,222.109.245a38.1,38.1,0,0,0-9.418,75.617c-.129.559-.234,1.125-.32,1.7-.5,1.125.727-3.191-18.418,73.34l-68.422,40.445A23.2,23.2,0,0,0,149.14,231.3l76.77-45.387a23.388,23.388,0,0,0,8.387-8.566l9.723,41.059-77,54.277a23.356,23.356,0,0,0-8.715,11.844l-9.7,30.105a7.5,7.5,0,1,0,14.277,4.6l9.7-30.105a8.227,8.227,0,0,1,3.082-4.184l72.082-50.816c1.117,4.328,2.754,6.227,7.27,14.945l-65.625,46.262a7.515,7.515,0,0,0-2.816,3.828l-30.031,93.168a8.182,8.182,0,0,1-10.191,5.32L112.249,387.23a8.218,8.218,0,0,1-5.453-10.242c3.848-12.621,21.734-.234,29.562.457a7.491,7.491,0,0,0,9.328-4.871l7.387-22.91a7.5,7.5,0,0,0-14.277-4.6l-5.117,15.879-12.27-3.75a23.2,23.2,0,0,0-13.543,44.383ZM194.875,35.5a23.091,23.091,0,1,1,31.762,23.98c-.074.027-.148.059-.223.09A23.142,23.142,0,0,1,194.875,35.5Zm27.184,132.43a8.259,8.259,0,0,1-3.777,5.07l-76.773,45.387a8.2,8.2,0,0,1-8.344-14.125l71.121-42.047a7.491,7.491,0,0,0,3.461-4.641l11.219-44.949,8.23,34.734Zm0,0" fill="#fff"/>
    <path id="Path_50309" data-name="Path 50309" d="M504.5,427H221.637a22.5,22.5,0,0,0-42.313,0H7.5A7.5,7.5,0,0,0,0,434.5v70A7.5,7.5,0,0,0,7.5,512h497a7.5,7.5,0,0,0,7.5-7.5v-70a7.5,7.5,0,0,0-7.5-7.5Zm-304.02.16a7.5,7.5,0,1,1-7.5,7.5A7.507,7.507,0,0,1,200.48,427.16ZM15,497V477H64.332a7.5,7.5,0,0,0,0-15H15V442H179.211a22.5,22.5,0,0,0,42.539,0H497v20H424.883a22.5,22.5,0,0,0-42.43,0H96a7.5,7.5,0,1,0,0,15H382.453a22.5,22.5,0,0,0,42.43,0H497v20Zm381.168-27.539a7.5,7.5,0,1,1,0,.078v-.078Zm0,0" fill="#fff"/>
  </g>
</svg>
